<svg width="431" height="440" viewBox="0 0 431 440" fill="none" xmlns="http://www.w3.org/2000/svg">
<path d="M155.912 439.208C120.413 439.208 91.0587 434.259 67.848 424.36C44.9787 414.461 27.912 401.491 16.648 385.448C5.72533 369.405 0.264001 352.339 0.264001 334.248C0.264001 313.768 5.55467 295.165 16.136 278.44C26.7173 261.715 40.5413 247.208 57.608 234.92C75.016 222.632 94.1307 212.904 114.952 205.736C135.773 198.568 156.253 194.472 176.392 193.448C158.643 186.963 144.136 178.088 132.872 166.824C121.949 155.219 116.488 142.589 116.488 128.936C116.488 114.941 120.755 101.629 129.288 89C138.163 76.0293 149.939 64.2533 164.616 53.672C179.293 42.7493 195.848 33.3627 214.28 25.512C233.053 17.6613 252.509 11.688 272.648 7.59198C292.787 3.15464 312.243 0.935974 331.016 0.935974C361.395 0.935974 385.629 6.05598 403.72 16.296C421.811 26.536 430.856 39.6773 430.856 55.72C430.856 70.3973 422.835 84.904 406.792 99.24C391.091 113.576 369.245 123.816 341.256 129.96C335.795 130.984 332.211 131.496 330.504 131.496C326.749 131.496 324.872 129.96 324.872 126.888C324.872 125.864 325.384 125.181 326.408 124.84C327.773 124.157 330.504 123.133 334.6 121.768C354.739 114.941 370.781 105.384 382.728 93.096C394.675 80.4666 400.648 67.1546 400.648 53.16C400.648 41.2133 394.845 31.656 383.24 24.488C371.976 16.9786 354.909 13.224 332.04 13.224C311.56 13.224 290.909 16.1253 270.088 21.928C249.267 27.7307 230.152 35.9227 212.744 46.504C195.336 57.0853 181.341 69.2026 170.76 82.856C160.179 96.5093 154.888 111.357 154.888 127.4C154.888 139.005 158.301 148.392 165.128 155.56C171.955 162.728 180.659 168.531 191.24 172.968C201.821 177.064 212.744 180.477 224.008 183.208C235.613 185.597 246.195 188.328 255.752 191.4C259.165 192.424 261.384 193.789 262.408 195.496C263.432 197.203 263.944 198.909 263.944 200.616C263.944 205.053 261.384 208.808 256.264 211.88C251.485 214.952 244.659 216.488 235.784 216.488C230.323 216.488 224.179 216.488 217.352 216.488C210.867 216.147 203.869 215.976 196.36 215.976C185.779 215.976 174.515 216.488 162.568 217.512C150.963 218.536 138.163 221.267 124.168 225.704C106.419 231.165 90.888 239.699 77.576 251.304C64.6053 262.909 54.536 275.709 47.368 289.704C40.2 303.699 36.616 317.523 36.616 331.176C36.616 348.925 40.712 364.968 48.904 379.304C57.096 393.64 70.0667 404.904 87.816 413.096C105.565 421.629 128.947 425.896 157.96 425.896C184.584 425.896 210.355 422.483 235.272 415.656C260.189 408.829 283.229 400.125 304.392 389.544C325.555 378.621 343.645 367.357 358.664 355.752C370.952 345.853 380.851 335.784 388.36 325.544C396.211 315.304 400.136 306.429 400.136 298.92C400.136 289.363 393.48 283.56 380.168 281.512C376.755 281.171 375.048 280.147 375.048 278.44C375.048 275.709 377.437 274.344 382.216 274.344C392.115 274.344 400.819 277.757 408.328 284.584C416.179 291.069 420.104 299.261 420.104 309.16C420.104 328.616 406.28 349.096 378.632 370.6C361.907 383.912 341.427 395.688 317.192 405.928C293.299 416.168 267.357 424.189 239.368 429.992C211.72 436.136 183.901 439.208 155.912 439.208Z" fill="#7B00D4"/>
</svg>
